# xmcd
#
# Track frame offsets:
#	183
#	13868
#	33070
#	44643
#	56720
#	76878
#	100958
#	111618
#	131370
#	150080
#	167120
#	185393
#	197480
#	214390
#	238583
#	256075
#	268373
#	294998
#
# Disc length: 4282
#
# Revision: 4
# Processed by: cddbd v1.5.1PL0 Copyright (c) Steve Scherf et al.
# Submitted via: Grip 2.94
# Normalized: r3:DSETVAR1
#
DISCID=fb10b812
DTITLE=Various Artist - Still Got The Blues, Vol. 1
DYEAR=1900
DGENRE=
TTITLE0=The Paul Delay Band - Who Will Be Next
TTITLE1=Byther Smith - I Don't Like To Travel
TTITLE2=Clarence Edwards - I Done Got Over It
TTITLE3=King Biscuit Boy And The Ronnie Hawkins Band - Terraplane Blues
TTITLE4=Sonny Blake - One Room Country Shack
TTITLE5=Troyce Key And J.j. Malone - I Gotta New Car/framed
TTITLE6=Paul Lamb And The Blues Burgland - Spaced Out
TTITLE7=Fenton Robinson - You Don't Know What Love Is
TTITLE8=Victoria Spivey - T.b. Blues
TTITLE9=Buddy Guy - We're Ready
TTITLE10=Billy Boy Arnold - Ooh Wee
TTITLE11=John Lee Hooker - Rock ´n´ Roll
TTITLE12=Tommy Tucker - Is That The Way God Planned It
TTITLE13=U. P. Wilson With Paul Orta And The Kingpins - You Got Me Runnin'
TTITLE14=Greg ´fingers´ Taylor - Can't Get No Grinding
TTITLE15=Sammy Grimes - Bag Pipe Special
TTITLE16=Roy Gaines - Houston, Texas
TTITLE17=Earl Hooker - Two Bugs In A Rug
EXTD=
EXTT0=
EXTT1=
EXTT2=
EXTT3=
EXTT4=
EXTT5=
EXTT6=
EXTT7=
EXTT8=
EXTT9=
EXTT10=
EXTT11=
EXTT12=
EXTT13=
EXTT14=
EXTT15=
EXTT16=
EXTT17=
PLAYORDER=
